# Exported from Wings 3D 1.5.4
mtllib J.mtl
o Cube1
#20 vertices, 18 faces
v 3.00000000 -1.00000000 -1.00000000
v 3.00000000 -1.00000000 1.00000000
v 3.00000000 1.00000000 -1.00000000
v 3.00000000 1.00000000 1.00000000
v 1.00000000 -1.00000000 -1.00000000
v 1.00000000 -1.00000000 1.00000000
v 1.00000000 1.00000000 -1.00000000
v 1.00000000 1.00000000 1.00000000
v -1.00000000 -1.00000000 1.00000000
v -1.00000000 -1.00000000 -1.00000000
v -1.00000000 1.00000000 -1.00000000
v -1.00000000 1.00000000 1.00000000
v -1.00000000 3.00000000 1.00000000
v -1.00000000 3.00000000 -1.00000000
v 1.00000000 3.00000000 -1.00000000
v 1.00000000 3.00000000 1.00000000
v -1.00000000 5.00000000 1.00000000
v -1.00000000 5.00000000 -1.00000000
v 1.00000000 5.00000000 -1.00000000
v 1.00000000 5.00000000 1.00000000
vt 0.0000000e+0 0.0000000e+0
vt 0.0000000e+0 3.3306691e-16
vt 0.0000000e+0 1.4988011e-15
vt 0.0000000e+0 0.50000000
vt 0.0000000e+0 0.50000000
vt 0.0000000e+0 0.50000000
vt 0.0000000e+0 0.50000000
vt 0.0000000e+0 1.00000000
vt 0.0000000e+0 1.00000000
vt 1.1102230e-16 0.50000000
vt 1.6653345e-16 0.50000000
vt 2.2204460e-16 1.00000000
vt 3.3306691e-16 5.5511151e-17
vt 4.4408921e-16 0.50000000
vt 8.8817842e-16 1.00000000
vt 0.33333300 0.50000000
vt 0.33333300 1.00000000
vt 0.33333330 0.0000000e+0
vt 0.33333330 3.3306691e-16
vt 0.33333330 0.50000000
vt 0.33333330 0.50000000
vt 0.33333333 5.5511151e-17
vt 0.33333333 0.50000000
vt 0.33333333 1.00000000
vt 0.33333333 1.1657342e-15
vt 0.33333333 0.50000000
vt 0.33333333 1.00000000
vt 0.33333333 0.50000000
vt 0.33333333 0.0000000e+0
vt 0.33333333 3.3306691e-16
vt 0.33333333 0.50000000
vt 0.33333333 1.00000000
vt 0.66666660 0.0000000e+0
vt 0.66666660 0.50000000
vt 0.66666667 0.50000000
vt 0.66666667 3.3306691e-16
vt 0.66666667 4.4408921e-16
vt 0.66666667 9.9920072e-16
vt 0.66666667 0.50000000
vt 0.66666667 0.50000000
vt 0.66666700 0.0000000e+0
vt 0.66666700 0.50000000
vt 1.00000000 0.0000000e+0
vt 1.00000000 2.7755576e-17
vt 1.00000000 0.0000000e+0
vt 1.00000000 3.3306691e-16
vt 1.00000000 0.50000000
vt 1.00000000 0.50000000
vt 1.00000000 0.50000000
vt 1.00000000 0.50000000
vn 0.57735027 -0.57735027 -0.57735027
vn 0.57735027 -0.57735027 0.57735027
vn 0.57735027 0.57735027 -0.57735027
vn 0.57735027 0.57735027 0.57735027
vn 0.0000000e+0 -0.70710678 -0.70710678
vn 0.0000000e+0 -0.70710678 0.70710678
vn 0.30151134 0.30151134 -0.90453403
vn 0.30151134 0.30151134 0.90453403
vn -0.57735027 -0.57735027 0.57735027
vn -0.57735027 -0.57735027 -0.57735027
vn -0.70710678 0.0000000e+0 -0.70710678
vn -0.70710678 0.0000000e+0 0.70710678
vn -0.70710678 0.0000000e+0 0.70710678
vn -0.70710678 0.0000000e+0 -0.70710678
vn 0.70710678 0.0000000e+0 -0.70710678
vn 0.70710678 0.0000000e+0 0.70710678
vn -0.57735027 0.57735027 0.57735027
vn -0.57735027 0.57735027 -0.57735027
vn 0.57735027 0.57735027 -0.57735027
vn 0.57735027 0.57735027 0.57735027
g Cube1_Cube1_auv
usemtl Cube1_auv
s 1
f 1/18/1 3/20/3 4/11/4 2/2/2
f 1/15/1 5/14/5 7/31/7 3/32/3
f 2/10/2 6/21/6 5/19/5 1/2/1
f 3/41/3 7/45/7 8/48/8 4/42/4
f 4/27/4 8/26/8 6/7/6 2/12/2
f 5/14/5 10/3/10 11/25/11 7/31/7
f 6/21/6 9/34/9 10/33/10 5/19/5
f 7/13/7 15/5/15 16/23/16 8/22/8
f 8/26/8 12/29/12 9/1/9 6/7/6
f 8/26/8 16/39/16 13/37/13 12/29/12
f 9/49/9 12/35/12 11/36/11 10/46/10
f 11/25/11 14/38/14 15/40/15 7/31/7
f 12/35/12 13/28/13 14/30/14 11/36/11
f 13/28/13 17/4/17 18/1/18 14/30/14
f 14/38/14 18/44/18 19/50/19 15/40/15
f 15/5/15 19/8/19 20/24/20 16/23/16
f 16/39/16 20/47/20 17/43/17 13/37/13
f 17/9/17 20/17/20 19/16/19 18/6/18
