# Exported from Wings 3D 1.5.4
mtllib L.mtl
o Cube1
#20 vertices, 18 faces
v -1.00000000 -1.00000000 -1.00000000
v -1.00000000 -1.00000000 1.00000000
v -1.00000000 1.00000000 -1.00000000
v -1.00000000 1.00000000 1.00000000
v 1.00000000 -1.00000000 -1.00000000
v 1.00000000 -1.00000000 1.00000000
v 1.00000000 1.00000000 -1.00000000
v 1.00000000 1.00000000 1.00000000
v 3.00000000 -1.00000000 1.00000000
v 3.00000000 -1.00000000 -1.00000000
v 3.00000000 1.00000000 -1.00000000
v 3.00000000 1.00000000 1.00000000
v 3.00000000 3.00000000 1.00000000
v 3.00000000 3.00000000 -1.00000000
v 1.00000000 3.00000000 -1.00000000
v 1.00000000 3.00000000 1.00000000
v 3.00000000 5.00000000 1.00000000
v 3.00000000 5.00000000 -1.00000000
v 1.00000000 5.00000000 -1.00000000
v 1.00000000 5.00000000 1.00000000
vt 0.0000000e+0 0.0000000e+0
vt 0.0000000e+0 3.3306691e-16
vt 0.0000000e+0 0.50000000
vt 1.1102230e-16 0.50000000
vt 1.1102230e-16 0.50000000
vt 1.1102230e-16 0.50000000
vt 1.6653345e-16 0.50000000
vt 5.5511151e-16 0.0000000e+0
vt 6.6613381e-16 2.7755576e-17
vt 0.33333330 0.0000000e+0
vt 0.33333330 3.3306691e-16
vt 0.33333330 0.50000000
vt 0.33333330 0.50000000
vt 0.33333333 0.50000000
vt 0.33333333 0.50000000
vt 0.33333333 4.4408921e-16
vt 0.33333333 0.50000000
vt 0.33333333 3.3306691e-16
vt 0.33333333 9.9920072e-16
vt 0.66666660 0.0000000e+0
vt 0.66666660 0.50000000
vt 0.66666667 1.00000000
vt 0.66666667 0.0000000e+0
vt 0.66666667 0.50000000
vt 0.66666667 3.3306691e-16
vt 0.66666667 0.50000000
vt 0.66666667 0.50000000
vt 0.66666667 1.00000000
vt 0.66666667 1.1657342e-15
vt 0.66666667 0.50000000
vt 0.66666667 1.00000000
vt 0.66666667 5.5511151e-17
vt 0.66666700 0.50000000
vt 0.66666700 1.00000000
vt 0.66666700 0.50000000
vt 0.66666700 1.00000000
vt 1.00000000 1.00000000
vt 1.00000000 3.3306691e-16
vt 1.00000000 0.50000000
vt 1.00000000 0.50000000
vt 1.00000000 1.00000000
vt 1.00000000 0.0000000e+0
vt 1.00000000 5.5511151e-17
vt 1.00000000 0.50000000
vt 1.00000000 0.50000000
vt 1.00000000 0.50000000
vt 1.00000000 1.00000000
vt 1.00000000 1.00000000
vt 1.00000000 1.4988011e-15
vn -0.57735027 -0.57735027 -0.57735027
vn -0.57735027 -0.57735027 0.57735027
vn -0.57735027 0.57735027 -0.57735027
vn -0.57735027 0.57735027 0.57735027
vn 0.0000000e+0 -0.70710678 -0.70710678
vn 0.0000000e+0 -0.70710678 0.70710678
vn -0.30151134 0.30151134 -0.90453403
vn -0.30151134 0.30151134 0.90453403
vn 0.57735027 -0.57735027 0.57735027
vn 0.57735027 -0.57735027 -0.57735027
vn 0.70710678 0.0000000e+0 -0.70710678
vn 0.70710678 0.0000000e+0 0.70710678
vn 0.70710678 0.0000000e+0 0.70710678
vn 0.70710678 0.0000000e+0 -0.70710678
vn -0.70710678 0.0000000e+0 -0.70710678
vn -0.70710678 0.0000000e+0 0.70710678
vn 0.57735027 0.57735027 0.57735027
vn 0.57735027 0.57735027 -0.57735027
vn -0.57735027 0.57735027 -0.57735027
vn -0.57735027 0.57735027 0.57735027
g Cube1_Cube1_auv
usemtl Cube1_auv
s 1
f 1/2/1 5/11/5 6/13/6 2/6/2
f 2/2/2 4/7/4 3/12/3 1/10/1
f 2/41/2 6/46/6 8/26/8 4/28/4
f 3/22/3 7/27/7 5/40/5 1/37/1
f 4/36/4 8/47/8 7/39/7 3/35/3
f 5/11/5 10/20/10 9/21/9 6/13/6
f 6/46/6 9/42/9 12/23/12 8/26/8
f 7/27/7 11/29/11 10/49/10 5/40/5
f 7/27/7 15/15/15 14/19/14 11/29/11
f 8/43/8 16/44/16 15/30/15 7/32/7
f 10/38/10 11/25/11 12/24/12 9/45/9
f 11/25/11 14/18/14 13/17/13 12/24/12
f 12/23/12 13/16/13 16/14/16 8/26/8
f 13/16/13 17/8/17 20/5/20 16/14/16
f 14/18/14 18/1/18 17/3/17 13/17/13
f 15/15/15 19/4/19 18/9/18 14/19/14
f 16/44/16 20/48/20 19/31/19 15/30/15
f 18/33/18 19/45/19 20/48/20 17/34/17
