# Exported from Wings 3D 1.5.4
mtllib O.mtl
o Cube1
#18 vertices, 16 faces
v -2.00000000 -2.00000000 -1.00000000
v -2.00000000 -2.00000000 1.00000000
v -2.00000000 0.0000000e+0 -1.00000000
v -2.00000000 0.0000000e+0 1.00000000
v 0.0000000e+0 -2.00000000 -1.00000000
v 0.0000000e+0 -2.00000000 1.00000000
v 0.0000000e+0 0.0000000e+0 -1.00000000
v 0.0000000e+0 0.0000000e+0 1.00000000
v 2.00000000 -2.00000000 1.00000000
v 2.00000000 -2.00000000 -1.00000000
v 2.00000000 0.0000000e+0 -1.00000000
v 2.00000000 0.0000000e+0 1.00000000
v 0.0000000e+0 2.00000000 -1.00000000
v 0.0000000e+0 2.00000000 1.00000000
v -2.00000000 2.00000000 -1.00000000
v -2.00000000 2.00000000 1.00000000
v 2.00000000 2.00000000 1.00000000
v 2.00000000 2.00000000 -1.00000000
vt 0.0000000e+0 2.2204460e-16
vt 0.0000000e+0 4.4408921e-16
vt 0.0000000e+0 0.50000000
vt 1.6653345e-16 1.00000000
vt 2.4980018e-16 0.50000000
vt 2.4980018e-16 0.0000000e+0
vt 2.4980018e-16 4.4408921e-16
vt 2.4980018e-16 0.50000000
vt 0.50000000 0.0000000e+0
vt 0.50000000 0.0000000e+0
vt 0.50000000 2.2204460e-16
vt 0.50000000 4.4408921e-16
vt 0.50000000 0.50000000
vt 0.50000000 0.50000000
vt 0.50000000 1.00000000
vt 0.50000000 0.0000000e+0
vt 0.50000000 0.50000000
vt 0.50000000 0.50000000
vt 0.50000000 1.00000000
vt 0.50000000 0.50000000
vt 0.50000000 1.00000000
vt 1.00000000 0.0000000e+0
vt 1.00000000 0.0000000e+0
vt 1.00000000 0.0000000e+0
vt 1.00000000 2.2204460e-16
vt 1.00000000 4.4408921e-16
vt 1.00000000 0.50000000
vt 1.00000000 1.00000000
vt 1.00000000 1.00000000
vt 1.00000000 0.50000000
vt 1.00000000 0.50000000
vt 1.00000000 0.50000000
vt 1.00000000 1.00000000
vn -0.57735027 -0.57735027 -0.57735027
vn -0.57735027 -0.57735027 0.57735027
vn -0.70710678 0.0000000e+0 -0.70710678
vn -0.70710678 0.0000000e+0 0.70710678
vn 0.0000000e+0 -0.70710678 -0.70710678
vn 0.0000000e+0 -0.70710678 0.70710678
vn 0.0000000e+0 0.0000000e+0 -1.00000000
vn 0.0000000e+0 0.0000000e+0 1.00000000
vn 0.57735027 -0.57735027 0.57735027
vn 0.57735027 -0.57735027 -0.57735027
vn 0.70710678 0.0000000e+0 -0.70710678
vn 0.70710678 0.0000000e+0 0.70710678
vn 0.0000000e+0 0.70710678 -0.70710678
vn 0.0000000e+0 0.70710678 0.70710678
vn -0.57735027 0.57735027 -0.57735027
vn -0.57735027 0.57735027 0.57735027
vn 0.57735027 0.57735027 0.57735027
vn 0.57735027 0.57735027 -0.57735027
g Cube1_OBlock
usemtl OBlock
s 1
f 1/30/1 5/13/5 6/10/6 2/24/2
f 2/10/2 4/18/4 3/31/3 1/22/1
f 2/6/2 6/11/6 8/14/8 4/8/4
f 3/27/3 7/14/7 5/12/5 1/26/1
f 3/27/3 15/29/15 13/15/13 7/14/7
f 4/18/4 16/19/16 15/33/15 3/31/3
f 5/13/5 10/5/10 9/1/9 6/10/6
f 6/11/6 9/25/9 12/27/12 8/14/8
f 7/14/7 11/8/11 10/7/10 5/12/5
f 8/14/8 14/15/14 16/4/16 4/8/4
f 10/16/10 11/20/11 12/31/12 9/23/9
f 11/20/11 18/21/18 17/33/17 12/31/12
f 12/27/12 17/28/17 14/15/14 8/14/8
f 13/17/13 15/3/15 16/2/16 14/9/14
f 13/15/13 18/4/18 11/8/11 7/14/7
f 14/9/14 17/24/17 18/32/18 13/17/13
