# Exported from Wings 3D 1.5.4
mtllib S.mtl
o Cube1
#20 vertices, 18 faces
v -1.00000000 -1.00000000 -1.00000000
v -1.00000000 -1.00000000 1.00000000
v -1.00000000 1.00000000 -1.00000000
v -1.00000000 1.00000000 1.00000000
v 1.00000000 -1.00000000 -1.00000000
v 1.00000000 -1.00000000 1.00000000
v 1.00000000 1.00000000 -1.00000000
v 1.00000000 1.00000000 1.00000000
v -3.00000000 -1.00000000 -1.00000000
v -3.00000000 -1.00000000 1.00000000
v -3.00000000 1.00000000 1.00000000
v -3.00000000 1.00000000 -1.00000000
v -1.00000000 3.00000000 -1.00000000
v -1.00000000 3.00000000 1.00000000
v 1.00000000 3.00000000 1.00000000
v 1.00000000 3.00000000 -1.00000000
v 3.00000000 3.00000000 -1.00000000
v 3.00000000 3.00000000 1.00000000
v 3.00000000 1.00000000 1.00000000
v 3.00000000 1.00000000 -1.00000000
vt -3.7007434e-17 2.7755576e-16
vt 0.0000000e+0 0.0000000e+0
vt 0.0000000e+0 1.6653345e-16
vt 0.0000000e+0 0.50000000
vt 1.4802974e-16 0.50000000
vt 1.6653345e-16 0.50000000
vt 0.33333000 1.1102230e-16
vt 0.33333000 0.50000000
vt 0.33333333 1.00000000
vt 0.33333333 0.50000000
vt 0.33333333 1.1102230e-16
vt 0.33333333 0.50000000
vt 0.33333333 1.00000000
vt 0.33333333 0.0000000e+0
vt 0.33334000 0.50000000
vt 0.33334000 1.00000000
vt 0.66666000 0.0000000e+0
vt 0.66666000 0.50000000
vt 0.66666667 -5.5511151e-17
vt 0.66666667 1.00000000
vt 0.66666667 0.50000000
vt 0.66666667 0.50000000
vt 0.66666667 3.3306691e-16
vt 0.66666667 1.00000000
vt 0.66667000 1.00000000
vt 0.66667000 0.50000000
vt 0.67000000 0.50000000
vt 0.67000000 1.00000000
vt 0.67000000 1.00000000
vt 1.00000000 0.50000000
vt 1.00000000 1.00000000
vt 1.00000000 0.50000000
vt 1.00000000 1.00000000
vt 1.00000000 1.00000000
vn 0.0000000e+0 -0.70710678 -0.70710678
vn 0.0000000e+0 -0.70710678 0.70710678
vn -0.30151134 0.30151134 -0.90453403
vn -0.30151134 0.30151134 0.90453403
vn 0.57735027 -0.57735027 -0.57735027
vn 0.57735027 -0.57735027 0.57735027
vn 0.30151134 -0.30151134 -0.90453403
vn 0.30151134 -0.30151134 0.90453403
vn -0.57735027 -0.57735027 -0.57735027
vn -0.57735027 -0.57735027 0.57735027
vn -0.57735027 0.57735027 0.57735027
vn -0.57735027 0.57735027 -0.57735027
vn -0.57735027 0.57735027 -0.57735027
vn -0.57735027 0.57735027 0.57735027
vn 0.0000000e+0 0.70710678 0.70710678
vn 0.0000000e+0 0.70710678 -0.70710678
vn 0.57735027 0.57735027 -0.57735027
vn 0.57735027 0.57735027 0.57735027
vn 0.57735027 -0.57735027 0.57735027
vn 0.57735027 -0.57735027 -0.57735027
g Cube1_default
usemtl default
s 1
f 1/8/1 5/6/5 6/3/6 2/7/2
f 1/11/1 9/1/9 12/5/12 3/12/3
f 2/14/2 6/23/6 8/22/8 4/10/4
f 2/7/2 10/17/10 9/18/9 1/8/1
f 3/12/3 7/21/7 5/19/5 1/11/1
f 3/27/3 12/32/12 11/34/11 4/29/4
f 3/12/3 13/13/13 16/24/16 7/21/7
f 4/10/4 11/4/11 10/2/10 2/14/2
f 4/28/4 14/27/14 13/32/13 3/34/3
f 5/29/5 7/27/7 8/32/8 6/34/6
f 7/27/7 20/32/20 19/34/19 8/29/8
f 8/22/8 15/20/15 14/9/14 4/10/4
f 8/22/8 19/32/19 18/31/18 15/20/15
f 10/29/10 11/27/11 12/32/12 9/34/9
f 14/15/14 15/26/15 16/25/16 13/16/13
f 15/26/15 18/32/18 17/34/17 16/25/16
f 16/24/16 17/33/17 20/30/20 7/21/7
f 18/32/18 19/34/19 20/29/20 17/27/17
