# Exported from Wings 3D 1.5.4
mtllib T.mtl
o Cube1
#20 vertices, 18 faces
v -1.00000000 -1.00000000 -1.00000000
v -1.00000000 -1.00000000 1.00000000
v -1.00000000 1.00000000 -1.00000000
v -1.00000000 1.00000000 1.00000000
v 1.00000000 -1.00000000 -1.00000000
v 1.00000000 -1.00000000 1.00000000
v 1.00000000 1.00000000 -1.00000000
v 1.00000000 1.00000000 1.00000000
v -1.00000000 3.00000000 -1.00000000
v -1.00000000 3.00000000 1.00000000
v 1.00000000 3.00000000 1.00000000
v 1.00000000 3.00000000 -1.00000000
v -3.00000000 -1.00000000 -1.00000000
v -3.00000000 -1.00000000 1.00000000
v -3.00000000 1.00000000 1.00000000
v -3.00000000 1.00000000 -1.00000000
v 3.00000000 -1.00000000 1.00000000
v 3.00000000 -1.00000000 -1.00000000
v 3.00000000 1.00000000 -1.00000000
v 3.00000000 1.00000000 1.00000000
vt 0.0000000e+0 0.0000000e+0
vt 0.0000000e+0 1.1102230e-16
vt 0.0000000e+0 1.2212453e-15
vt 0.0000000e+0 0.50000000
vt 0.0000000e+0 0.50000000
vt 4.4408921e-16 0.50000000
vt 0.33333333 1.1102230e-16
vt 0.33333333 7.7715612e-16
vt 0.33333333 1.00000000
vt 0.33333333 0.50000000
vt 0.33333333 0.50000000
vt 0.33333333 2.2204460e-16
vt 0.33333333 0.50000000
vt 0.33333333 1.00000000
vt 0.33335000 0.0000000e+0
vt 0.33335000 0.50000000
vt 0.33500000 0.0000000e+0
vt 0.33500000 0.50000000
vt 0.33500000 0.50000000
vt 0.33500000 0.0000000e+0
vt 0.33500000 0.50000000
vt 0.33500000 0.50000000
vt 0.33500000 0.50000000
vt 0.66500000 0.0000000e+0
vt 0.66500000 1.1102230e-16
vt 0.66500000 0.50000000
vt 0.66500000 0.50000000
vt 0.66500000 0.0000000e+0
vt 0.66500000 1.1102230e-16
vt 0.66500000 0.50000000
vt 0.66665000 0.0000000e+0
vt 0.66665000 0.50000000
vt 0.66666667 4.4408921e-16
vt 0.66666667 0.50000000
vt 0.66666667 1.1102230e-16
vt 0.66666667 0.50000000
vt 0.66666667 1.00000000
vt 0.66666667 6.6613381e-16
vt 0.66666667 0.50000000
vt 0.66666667 1.00000000
vt 1.00000000 1.1102230e-16
vt 1.00000000 2.2204460e-16
vt 1.00000000 4.4408921e-16
vt 1.00000000 0.50000000
vt 1.00000000 0.50000000
vt 1.00000000 0.50000000
vn 0.0000000e+0 -0.70710678 -0.70710678
vn 0.0000000e+0 -0.70710678 0.70710678
vn -0.30151134 0.30151134 -0.90453403
vn -0.30151134 0.30151134 0.90453403
vn 0.0000000e+0 -0.70710678 -0.70710678
vn 0.0000000e+0 -0.70710678 0.70710678
vn 0.30151134 0.30151134 -0.90453403
vn 0.30151134 0.30151134 0.90453403
vn -0.57735027 0.57735027 -0.57735027
vn -0.57735027 0.57735027 0.57735027
vn 0.57735027 0.57735027 0.57735027
vn 0.57735027 0.57735027 -0.57735027
vn -0.57735027 -0.57735027 -0.57735027
vn -0.57735027 -0.57735027 0.57735027
vn -0.57735027 0.57735027 0.57735027
vn -0.57735027 0.57735027 -0.57735027
vn 0.57735027 -0.57735027 0.57735027
vn 0.57735027 -0.57735027 -0.57735027
vn 0.57735027 0.57735027 -0.57735027
vn 0.57735027 0.57735027 0.57735027
g Cube1_default
usemtl default
s 1
f 1/38/1 5/12/5 6/10/6 2/39/2
f 1/35/1 13/43/13 16/46/16 3/36/3
f 2/8/2 6/33/6 8/34/8 4/13/4
f 2/39/2 14/45/14 13/42/13 1/38/1
f 3/36/3 7/11/7 5/7/5 1/35/1
f 3/36/3 9/37/9 12/9/12 7/11/7
f 3/20/3 16/28/16 15/30/15 4/23/4
f 4/21/4 10/20/10 9/28/9 3/30/3
f 4/13/4 15/6/15 14/3/14 2/8/2
f 5/12/5 18/1/18 17/4/17 6/10/6
f 6/33/6 17/41/17 20/44/20 8/34/8
f 7/19/7 12/17/12 11/24/11 8/26/8
f 7/11/7 19/5/19 18/2/18 5/7/5
f 8/34/8 11/40/11 10/14/10 4/13/4
f 8/16/8 20/32/20 19/31/19 7/15/7
f 10/27/10 11/18/11 12/17/12 9/25/9
f 14/21/14 15/20/15 16/28/16 13/30/13
f 18/22/18 19/20/19 20/29/20 17/30/17
